<svg width="50" height="50" viewBox="0 0 50 50" fill="none" xmlns="http://www.w3.org/2000/svg">
<rect width="50" height="50" rx="3" fill="white" fill-opacity="0.03"/>
<path d="M34 28.9999V20.9999C33.9996 20.6492 33.9071 20.3047 33.7315 20.0011C33.556 19.6974 33.3037 19.4453 33 19.2699L26 15.2699C25.696 15.0944 25.3511 15.002 25 15.002C24.6489 15.002 24.304 15.0944 24 15.2699L17 19.2699C16.6963 19.4453 16.444 19.6974 16.2685 20.0011C16.0929 20.3047 16.0004 20.6492 16 20.9999V28.9999C16.0004 29.3506 16.0929 29.6951 16.2685 29.9987C16.444 30.3024 16.6963 30.5545 17 30.7299L24 34.7299C24.304 34.9054 24.6489 34.9979 25 34.9979C25.3511 34.9979 25.696 34.9054 26 34.7299L33 30.7299C33.3037 30.5545 33.556 30.3024 33.7315 29.9987C33.9071 29.6951 33.9996 29.3506 34 28.9999Z" stroke="white" stroke-width="2" stroke-linecap="round" stroke-linejoin="round"/>
<path d="M16.27 19.96L25 25.01L33.73 19.96" stroke="white" stroke-width="2" stroke-linecap="round" stroke-linejoin="round"/>
<path d="M25 35.08V25" stroke="white" stroke-width="2" stroke-linecap="round" stroke-linejoin="round"/>
</svg>
