<svg width="169" height="26" viewBox="0 0 169 26" fill="none" xmlns="http://www.w3.org/2000/svg">
<g clip-path="url(#clip0_10563_69)">
<path d="M59.9128 14.8861L58.9154 16.8442H58.8322C58.666 16.4027 58.3612 15.7308 57.8625 14.9245L52.5153 5.61395H47.2789V20.4532H50.7421V11.2963C50.7421 10.7204 50.7421 10.0677 50.7144 9.26138C50.6867 8.85824 50.6313 8.55109 50.6036 8.32073H50.6867C50.8529 8.89664 51.0469 9.31897 51.1854 9.58773L57.6132 20.4148H60.0513L66.4237 9.49174C66.5622 9.24218 66.7007 8.74306 66.8392 8.32073H66.9224C66.8392 9.41496 66.7838 10.394 66.7561 10.9891V20.3957H70.441V5.57555H65.3985L59.9128 14.8861ZM73.932 9.7605H77.5337V20.3957H73.932V9.7605ZM75.7606 5.2684C75.151 5.2684 74.6523 5.42198 74.2367 5.69074C73.8211 5.95949 73.5995 6.30504 73.5995 6.72737C73.5995 7.13051 73.8211 7.47606 74.2367 7.74482C74.6523 8.01357 75.151 8.14795 75.7606 8.14795C76.3701 8.14795 76.8965 7.99438 77.2844 7.74482C77.7 7.47606 77.9216 7.13051 77.9216 6.72737C77.9216 6.32424 77.7 5.97869 77.2844 5.69074C76.9242 5.42198 76.3978 5.2684 75.7606 5.2684ZM90.3062 9.66452C89.6412 9.56853 88.9486 9.51094 88.2836 9.51094C86.649 9.51094 85.1529 9.7605 83.9061 10.2596C82.6593 10.7587 81.6619 11.4498 81.0247 12.3137C80.3597 13.1968 80.0273 14.2142 80.0273 15.3852C80.0273 16.4027 80.3597 17.3049 80.997 18.1304C81.6342 18.9367 82.5208 19.5894 83.7122 20.0309C84.8481 20.4724 86.178 20.7028 87.6741 20.7028C89.3919 20.7028 90.8603 20.4532 92.0239 19.9925L92.0516 19.9733V17.6697L91.9131 17.7465C91.3867 18.0152 90.7772 18.2456 90.1676 18.38C89.5304 18.5335 88.9486 18.6103 88.4499 18.6103C87.0092 18.6103 85.8732 18.3224 85.0697 17.6889C84.2386 17.0746 83.823 16.2299 83.823 15.1741C83.823 14.0798 84.2386 13.216 85.0975 12.5825C85.9563 11.949 87.0923 11.6226 88.4776 11.6226C89.6412 11.6226 90.8326 11.8914 91.9131 12.4289L92.0516 12.5057V10.0677L92.0239 10.0485C91.5529 9.91408 91.0265 9.7605 90.3062 9.66452ZM102.192 9.58773C101.305 9.58773 100.474 9.7797 99.7539 10.1828C99.1443 10.5284 98.7288 11.0275 98.3686 11.6226H98.3409V9.7605H94.7391V20.3957H98.3409V14.9629C98.3409 14.0414 98.6179 13.2736 99.2275 12.7168C99.837 12.1409 100.613 11.853 101.555 11.853C101.887 11.853 102.22 11.9106 102.635 11.949C103.023 12.0258 103.3 12.1025 103.494 12.1985L103.633 12.2753V9.7797L103.55 9.7605C103.3 9.64532 102.802 9.58773 102.192 9.58773ZM112 9.53014C109.479 9.53014 107.456 10.0485 106.043 11.0659C104.602 12.0833 103.91 13.4847 103.91 15.2508C103.91 16.9018 104.63 18.2456 106.015 19.2246C107.401 20.1845 109.285 20.6836 111.64 20.6836C114.106 20.6836 116.073 20.1653 117.486 19.1286C118.926 18.092 119.619 16.7098 119.619 15.0013C119.619 13.312 118.954 11.9682 117.596 10.9891C116.294 10.0101 114.383 9.53014 112 9.53014ZM114.881 17.7081C114.216 18.3032 113.164 18.5911 111.861 18.5911C110.559 18.5911 109.506 18.3032 108.758 17.6697C108.01 17.0746 107.65 16.2107 107.65 15.1165C107.65 13.9838 108.038 13.12 108.758 12.5057C109.506 11.8914 110.531 11.5842 111.834 11.5842C113.108 11.5842 114.106 11.8722 114.826 12.4673C115.546 13.0624 115.934 13.9263 115.934 15.0589C115.879 16.2107 115.574 17.113 114.881 17.7081ZM127.654 14.1758C126.518 13.8495 125.797 13.5999 125.465 13.3887C125.188 13.1968 125.049 12.928 125.049 12.5825C125.049 12.2945 125.216 12.0066 125.631 11.8146C126.047 11.6226 126.518 11.5266 127.21 11.5266C127.82 11.5266 128.457 11.6034 129.067 11.7186C129.676 11.8338 130.23 12.0066 130.674 12.2369L130.812 12.3137V9.97167L130.729 9.95247C130.314 9.83729 129.759 9.72211 129.094 9.62612C128.43 9.54934 127.82 9.51094 127.321 9.51094C125.604 9.51094 124.191 9.7989 123.082 10.4324C121.974 11.0275 121.448 11.8338 121.448 12.7744C121.448 13.2736 121.558 13.7151 121.808 14.0798C122.057 14.4446 122.417 14.7901 122.916 15.0781C123.415 15.3468 124.135 15.654 125.133 15.9419C125.964 16.1915 126.601 16.3835 126.989 16.5371C127.377 16.6906 127.626 16.8634 127.82 16.9978C127.959 17.1514 128.042 17.3433 128.042 17.5929C128.042 18.3032 127.266 18.6487 125.687 18.6487C125.077 18.6487 124.44 18.5719 123.692 18.3992C122.944 18.2264 122.251 17.9768 121.669 17.6889L121.531 17.6121V20.0501L121.614 20.0693C122.14 20.2421 122.777 20.3573 123.553 20.4916C124.329 20.5876 125.022 20.6644 125.631 20.6644C127.488 20.6644 129.011 20.3765 130.092 19.743C131.2 19.1286 131.782 18.3416 131.782 17.3241C131.782 16.6138 131.505 15.9803 130.895 15.5004C130.092 15.0397 129.094 14.5598 127.654 14.1758ZM141.285 9.53014C138.764 9.53014 136.741 10.0485 135.328 11.0659C133.915 12.0833 133.195 13.4847 133.195 15.2508C133.195 16.9018 133.915 18.2456 135.301 19.2246C136.686 20.1845 138.57 20.6836 140.925 20.6836C143.391 20.6836 145.358 20.1653 146.771 19.1286C148.212 18.092 148.904 16.7098 148.904 15.0013C148.904 13.312 148.239 11.9682 146.882 10.9891C145.579 10.0101 143.668 9.53014 141.285 9.53014ZM144.139 17.7081C143.474 18.3032 142.421 18.5911 141.119 18.5911C139.789 18.5911 138.764 18.3032 138.016 17.6697C137.268 17.0746 136.908 16.2107 136.908 15.1165C136.908 13.9838 137.295 13.12 138.016 12.5057C138.764 11.8914 139.789 11.5842 141.091 11.5842C142.338 11.5842 143.363 11.8722 144.083 12.4673C144.804 13.0624 145.192 13.9263 145.192 15.0589C145.192 16.2107 144.831 17.113 144.139 17.7081ZM168.16 11.8146V9.7605H164.53V6.61219L164.42 6.63139L160.984 7.34168L160.901 7.36088V9.7605H155.47V8.41671C155.47 7.80241 155.692 7.32248 156.08 7.01533C156.468 6.70818 157.05 6.5546 157.77 6.5546C158.269 6.5546 158.795 6.63139 159.377 6.80416L159.516 6.86175V4.69249L159.432 4.67329C158.934 4.55811 158.269 4.48132 157.41 4.48132C156.329 4.48132 155.387 4.6541 154.528 4.94205C153.67 5.2684 153.032 5.70993 152.561 6.30504C152.09 6.88095 151.841 7.53365 151.841 8.28233V9.7605H149.32V11.7954H151.841V20.3957H155.47V11.8146H160.901V17.2857C160.901 19.5318 162.425 20.6644 165.472 20.6644C165.971 20.6644 166.497 20.6068 166.996 20.5492C167.523 20.4724 167.91 20.3765 168.132 20.2997L168.16 20.2805V18.2264L168.021 18.3032C167.8 18.3992 167.606 18.4759 167.273 18.5335C166.996 18.5911 166.747 18.6103 166.553 18.6103C165.832 18.6103 165.334 18.4951 164.974 18.2072C164.641 17.9384 164.475 17.4969 164.475 16.8442V11.8146H168.16Z" fill="white" fill-opacity="0.6"/>
<path d="M0.84375 0.622681H17.8275V12.3905H0.84375V0.622681Z" fill="white" fill-opacity="0.6"/>
<path d="M19.6007 0.622681H36.5844V12.3905H19.6007V0.622681Z" fill="white" fill-opacity="0.6"/>
<path d="M0.84375 13.619H17.8275V25.3868H0.84375V13.619Z" fill="white" fill-opacity="0.6"/>
<path d="M19.6007 13.619H36.5844V25.3868H19.6007V13.619Z" fill="white" fill-opacity="0.6"/>
</g>
<defs>
<clipPath id="clip0_10563_69">
<rect width="167.344" height="24.7642" fill="white" transform="translate(0.84375 0.622681)"/>
</clipPath>
</defs>
</svg>
