<svg width="168" height="33" viewBox="0 0 168 33" fill="none" xmlns="http://www.w3.org/2000/svg">
<path d="M95.2065 11.3438C95.2065 7.93917 95.2901 4.76936 95.5412 1.83435L82.7394 3.53666V4.35846L83.9945 4.47586C84.9148 4.53456 85.5005 4.76936 85.8352 5.12156C86.1699 5.53246 86.4209 6.11947 86.5883 6.99997C86.7556 8.70228 86.923 12.5765 86.8393 18.6813C86.8393 24.7274 86.7556 28.5429 86.5883 30.0105C91.1902 30.7149 94.7881 31.0084 97.4656 31.0084C102.486 31.0084 106.419 30.0105 109.263 27.9559C112.108 25.9601 113.614 23.1425 113.614 19.6792C113.614 16.9203 112.527 14.631 110.351 12.8113C108.176 10.9916 105.414 10.1111 102.151 10.1111C99.9758 10.1111 97.7166 10.522 95.2065 11.3438ZM95.4575 29.4234C95.2902 27.545 95.1228 21.9098 95.1228 12.6939C95.8759 12.5178 96.8799 12.4004 98.135 12.4004C100.143 12.4004 101.733 13.1048 102.904 14.5723C104.076 16.0398 104.661 17.8008 104.661 20.0314C104.661 22.7903 103.992 25.0209 102.653 26.8993C101.315 28.719 99.6411 29.6583 97.5493 29.6583C96.8799 29.5408 96.2105 29.4821 95.4575 29.4234ZM34.7117 2.42135H1.24297V3.59536L3.00007 3.71276C4.33882 3.88886 5.25922 4.24106 5.84492 4.76936C6.43062 5.35636 6.76531 6.29557 6.84898 7.58697C7.51836 13.9266 7.51836 19.8553 6.84898 25.3144C6.68164 26.6058 6.34695 27.545 5.84492 28.132C5.25922 28.719 4.33882 29.0712 3.00007 29.1886L1.24297 29.3647V30.5388H22.8303V29.3647L20.5712 29.2473C19.2324 29.1299 18.312 28.719 17.7263 28.1907C17.1406 27.6037 16.8059 26.6645 16.7223 25.3731C16.4712 23.0251 16.3039 20.3249 16.3039 17.3312L20.8222 17.3899C23.2487 17.4486 24.9221 18.74 25.7588 21.3228H27.4323V11.7547H25.7588C24.9221 14.2788 23.3323 15.5702 20.8222 15.6289L16.3039 15.6876C16.3039 10.4046 16.4712 6.64777 16.7223 4.35846H23.3323C28.018 4.35846 31.1975 6.47167 33.0383 10.6981L35.0464 10.2872L34.7117 2.42135ZM30.7791 20.501C30.7791 23.5534 32.0342 26.0775 34.4607 28.0733C36.8872 30.0692 40.4851 31.0084 45.0034 31.0084C49.5216 31.0084 53.2032 30.0105 55.8807 27.9559C58.5582 25.9601 59.8133 23.436 59.8133 20.3836C59.8133 17.3312 58.5582 14.8071 56.1317 12.8113C53.7052 10.8155 50.1073 9.87628 45.5891 9.87628C41.0708 9.87628 37.3892 10.8742 34.7117 12.9287C32.0342 14.9245 30.7791 17.4486 30.7791 20.501ZM49.438 13.8092C50.442 15.5115 50.8604 17.7421 50.8604 20.4423C50.8604 26.6645 49.0196 29.7169 45.4217 29.7169C43.5809 29.7169 42.1585 28.8364 41.1544 27.0754C40.1504 25.3144 39.732 23.0838 39.732 20.4423C39.732 14.2788 41.5728 11.2264 45.1707 11.2264C47.0115 11.1677 48.4339 12.0482 49.438 13.8092ZM120.141 28.0733C122.902 30.0105 126.416 31.0084 130.6 31.0084C133.194 31.0084 135.453 30.6562 137.461 29.8931C139.469 29.1886 141.059 28.3081 142.146 27.2515L141.31 26.5471C139.469 27.545 137.377 28.0146 134.951 28.0146C131.604 28.0146 129.01 27.2515 127.253 25.6666C125.412 24.0817 124.575 22.0859 124.743 19.5031H142.648C142.648 16.6855 141.644 14.3962 139.553 12.5765C137.461 10.8155 134.532 9.93498 130.767 9.93498C126.081 9.93498 122.484 10.9916 119.89 13.0461C117.296 15.1006 116.041 17.6247 116.041 20.6184C116.041 23.6708 117.38 26.1362 120.141 28.0733ZM126.332 13.3396C127.253 11.9308 128.424 11.2264 130.014 11.2264C132.524 11.2264 133.779 13.457 133.779 17.9769L124.91 18.0943C124.994 16.3333 125.412 14.7484 126.332 13.3396ZM165.156 10.9916C162.897 10.2872 160.052 9.87628 156.622 9.87628C153.107 9.87628 150.346 10.522 148.254 11.7547C146.163 12.9874 145.075 14.5136 145.075 16.3333C145.075 17.9182 145.744 19.1509 146.999 20.0314C148.254 20.9119 150.263 21.675 152.856 22.3207C155.199 22.9077 156.873 23.4947 157.709 24.023C158.546 24.61 159.048 25.2557 159.048 26.1362C159.048 26.958 158.63 27.7211 157.709 28.3081C156.873 28.9538 155.701 29.2473 154.195 29.2473C150.514 29.2473 147.752 27.3689 145.828 23.6121L144.406 23.9056L144.74 29.7757C147.752 30.5975 151.099 31.0084 154.781 31.0084C158.63 31.0084 161.558 30.4214 163.734 29.1886C165.909 28.0146 166.997 26.3123 166.997 24.1991C166.997 22.7903 166.495 21.6163 165.407 20.7358C164.319 19.8553 162.562 19.0922 160.052 18.3878C157.291 17.6834 155.367 17.0377 154.362 16.4507C153.358 15.8637 152.856 15.1593 152.856 14.2788C152.856 13.3983 153.191 12.6939 153.944 12.1069C154.697 11.5199 155.618 11.2851 156.789 11.2851C160.136 11.2851 162.562 12.9874 164.068 16.3333L165.491 16.0398L165.156 10.9916ZM84.6638 10.4633C83.4924 10.0524 82.2373 9.87628 80.8149 9.87628C79.3925 9.87628 77.9701 10.2872 76.3803 11.109C74.7905 11.9308 73.6191 13.0461 72.6987 14.5723L72.7824 9.87628L60.0643 11.6373V12.4591L61.3194 12.5178C62.9091 12.6352 63.8295 13.5157 63.9969 15.1006C64.4989 18.74 64.4989 22.6142 63.9969 26.7232C63.8295 28.3081 62.9091 29.1299 61.3194 29.306L60.0643 29.4234V30.5388H77.8027V29.4234L75.5436 29.306C73.9538 29.1886 73.0334 28.3081 72.8661 26.7232C72.3641 23.3186 72.2804 19.6792 72.6987 15.9224C73.2008 15.3354 74.2885 14.9832 75.962 14.8658C77.6354 14.7484 79.5598 15.1006 81.568 15.9224L84.6638 10.4633Z" fill="white" fill-opacity="0.6"/>
</svg>
