<svg width="168" height="40" viewBox="0 0 168 40" fill="none" xmlns="http://www.w3.org/2000/svg">
<path d="M162.756 24.2984L167.399 26.4758C165.892 28.0372 162.288 30.716 156.058 30.716C148.321 30.716 142.559 26.5045 142.559 21.1469C142.559 15.4456 148.382 11.5779 155.406 11.5779C162.471 11.5779 165.933 15.5316 167.053 17.666L167.663 18.7547L149.461 24.0549C150.845 25.9744 153.004 26.9485 156.058 26.9485C159.112 26.9485 161.229 25.8885 162.756 24.2984ZM148.484 20.8461L160.639 17.2935C159.967 16.1046 157.972 15.2594 155.589 15.2594C152.556 15.2594 148.341 17.1503 148.484 20.8461Z" fill="white" fill-opacity="0.6"/>
<path d="M133.783 1.82263H139.647V29.8422H133.783V1.82263Z" fill="white" fill-opacity="0.6"/>
<path d="M124.539 12.3228H130.2V29.3408C130.2 36.403 124.275 39.311 117.271 39.311C110.674 39.311 106.703 36.1882 105.217 33.6526L110.409 32.1342C111.346 33.6956 113.606 35.5435 117.271 35.5435C121.77 35.5435 124.539 33.581 124.539 29.9138V28.5386H124.336C122.992 29.6846 120.426 30.716 117.169 30.716C110.368 30.716 104.138 26.5475 104.138 21.1756C104.138 15.7751 110.368 11.5636 117.169 11.5636C120.406 11.5636 122.992 12.5807 124.336 13.698H124.539V12.3228ZM124.947 21.1756C124.947 17.7949 121.75 15.3311 117.678 15.3311C113.565 15.3311 110.104 17.7949 110.104 21.1756C110.104 24.5133 113.565 26.9343 117.678 26.9343C121.75 26.9486 124.947 24.5133 124.947 21.1756Z" fill="white" fill-opacity="0.6"/>
<path d="M71.9475 21.104C71.9475 26.6191 65.8393 30.6731 58.3466 30.6731C50.8538 30.6731 44.7456 26.6048 44.7456 21.104C44.7456 15.5603 50.8538 11.5206 58.3466 11.5206C65.8393 11.5206 71.9475 15.5603 71.9475 21.104ZM66.0022 21.104C66.0022 17.666 62.4594 15.3024 58.3466 15.3024C54.2337 15.3024 50.6909 17.666 50.6909 21.104C50.6909 24.5133 54.2337 26.9056 58.3466 26.9056C62.4594 26.9056 66.0022 24.5133 66.0022 21.104Z" fill="white" fill-opacity="0.6"/>
<path d="M101.654 21.1469C101.654 26.662 95.5456 30.716 88.0529 30.716C80.5601 30.716 74.4519 26.662 74.4519 21.1469C74.4519 15.6032 80.5601 11.5779 88.0529 11.5779C95.5456 11.5779 101.654 15.5889 101.654 21.1469ZM95.6881 21.1469C95.6881 17.709 92.1454 15.3453 88.0325 15.3453C83.9196 15.3453 80.3769 17.709 80.3769 21.1469C80.3769 24.5563 83.9196 26.9485 88.0325 26.9485C92.1657 26.9485 95.6881 24.5419 95.6881 21.1469Z" fill="white" fill-opacity="0.6"/>
<path d="M22.3895 26.5188C13.8584 26.5188 7.18004 21.677 7.18004 15.6749C7.18004 9.67272 13.8584 4.8309 22.3895 4.8309C26.991 4.8309 30.3506 6.10582 32.8346 7.73886L36.9271 4.85955C33.4657 2.52458 28.8439 0.748291 22.3895 0.748291C10.7024 0.748291 0.868213 7.45236 0.868213 15.6749C0.868213 23.8974 10.7024 30.6015 22.3895 30.6015C28.7013 30.6015 33.4657 29.1403 37.1918 26.4186C41.0196 23.7255 42.2005 19.9437 42.2005 16.8782C42.2005 15.9184 42.0376 14.93 41.8544 14.1994H22.3895V18.1817H36.2552C35.8479 20.6743 34.7281 22.3789 33.0789 23.5393C31.0835 24.9574 27.9276 26.5188 22.3895 26.5188Z" fill="white" fill-opacity="0.6"/>
</svg>
