<svg width="168" height="24" viewBox="0 0 168 24" fill="none" xmlns="http://www.w3.org/2000/svg">
<g clip-path="url(#clip0_10563_61)">
<path d="M10.7367 22.9884H4.43734V11.9879H0.146088V8.40635H4.43718V5.85782C4.43718 2.83781 6.33513 0.671875 12.6175 0.671875C13.9462 0.671875 16.0322 0.859484 16.0322 0.859484V4.18515H13.8412C11.6087 4.18515 10.7371 4.66085 10.7371 5.97599V8.40635H15.9486L15.4845 11.9879H10.7369L10.7367 22.9884ZM25.1908 8.12014C25.099 8.12014 25.0046 8.12248 24.9111 8.12412C19.07 8.12412 16.3975 11.202 16.3975 15.5711C16.3975 21.075 19.8641 23.2778 24.9568 23.2778C27.8705 23.2778 29.7848 22.4187 30.9484 20.8155V22.99H36.94V8.40788H30.9484V10.6504C29.9983 9.20762 28.0305 8.13724 25.1908 8.12014ZM26.7143 11.5658C29.1676 11.5658 30.6401 12.7646 30.6401 14.8036L30.6458 16.8861C30.6458 18.2604 29.4296 19.8682 26.7143 19.8682C22.5399 19.8682 22.6514 16.7107 22.6514 15.659C22.6514 12.1215 24.8755 11.5658 26.7143 11.5658ZM39.3597 15.6997C39.3597 13.9277 39.2387 8.12963 50.0222 8.12963C54.3509 8.12963 56.1584 9.09379 56.1584 9.09379L54.7057 12.2502C54.7057 12.2502 52.9005 11.5539 50.5483 11.5539C47.5356 11.5539 45.6133 12.7773 45.6133 14.9299L45.6166 16.4734C45.6166 18.5418 47.4714 19.9225 50.5545 19.9225C52.6974 19.9225 54.6724 19.2196 54.6724 19.2196L56.1215 22.3102C56.1215 22.3102 54.4688 23.2804 50.0525 23.2804C39.7848 23.2804 39.3599 18.0784 39.3599 15.6997H39.3597ZM91.2894 8.12412C97.1307 8.12412 99.8453 11.202 99.8453 15.5711C99.8453 21.075 96.3786 23.2778 91.2859 23.2778C88.3722 23.2778 86.2183 22.4188 85.0547 20.8155V22.99L79.1385 22.9883V1.11525L85.42 0.731484V10.4528C86.3266 8.75206 89.306 8.12412 91.2896 8.12412H91.2894ZM89.5284 11.5658C87.0751 11.5658 85.42 12.7646 85.42 14.8036L85.4142 16.8861C85.4105 18.2604 86.5603 19.8682 89.5284 19.8682C93.7028 19.8682 93.5913 16.7107 93.5913 15.659C93.5913 12.1215 91.3673 11.5658 89.5284 11.5658ZM67.0573 8.13618C60.4321 8.13618 56.9345 10.6666 56.9345 15.1633V15.9988C56.9345 21.8352 61.8463 23.3378 67.7021 23.3378C73.394 23.3378 75.9704 22.2226 75.9704 22.2226L74.7949 19.2527C74.7949 19.2527 71.7644 20.1559 68.4553 20.1559C65.0248 20.1559 63.5495 19.5434 63.1713 17.234H76.4726V14.8515C76.4726 9.97363 72.5471 8.13607 67.0572 8.13607L67.0573 8.13618ZM67.217 11.1101C69.5103 11.1101 70.9964 12.0952 70.9148 14.3799H63.1829C63.3169 11.9753 64.9195 11.1102 67.217 11.1102V11.1101ZM112.37 8.11616C105.567 8.11616 101.985 10.8019 101.985 15.615C101.985 22.2188 108.159 23.2818 112.382 23.2818C118.563 23.2818 122.676 20.9505 122.676 15.675C122.676 10.1841 118.052 8.11616 112.37 8.11616ZM112.285 11.5778C115.276 11.5778 116.462 13.1462 116.462 14.9316V16.4665C116.462 18.6293 114.803 19.8802 112.273 19.8802C109.908 19.8802 108.245 18.7101 108.245 16.4665V14.9316C108.245 12.5388 110.223 11.5778 112.285 11.5778ZM135.19 8.11616C128.386 8.11616 124.804 10.8019 124.804 15.615C124.804 22.2188 130.978 23.2818 135.201 23.2818C141.382 23.2818 145.495 20.9505 145.495 15.675C145.495 10.1841 140.871 8.11616 135.19 8.11616ZM135.104 11.5778C138.096 11.5778 139.281 13.1462 139.281 14.9316V16.4665C139.281 18.6293 137.622 19.8802 135.093 19.8802C132.727 19.8802 131.064 18.7101 131.064 16.4665V14.9316C131.064 12.5388 133.043 11.5778 135.104 11.5778ZM147.869 22.9884V1.11525L154.169 0.731484V15.3923L160.419 8.40635H167.072L160.552 15.6417L167.323 22.9884H160.651L154.169 15.8549V22.9884H147.869Z" fill="white" fill-opacity="0.6"/>
</g>
<defs>
<clipPath id="clip0_10563_61">
<rect width="167.344" height="22.783" fill="white" transform="translate(0.0625 0.613281)"/>
</clipPath>
</defs>
</svg>
