<svg width="168" height="34" viewBox="0 0 168 34" fill="none" xmlns="http://www.w3.org/2000/svg">
<g clip-path="url(#clip0_10563_66)">
<path d="M32.4457 14.6089H18.3716C18.0085 14.6089 17.7138 14.8212 17.7138 15.0824V20.0336C17.7138 20.2948 18.0085 20.5073 18.3716 20.5073H23.8619V26.6587C23.8619 26.6587 22.6291 26.961 19.2208 26.961C15.1997 26.961 9.58243 25.9039 9.58243 17.0164C9.58243 8.12687 15.4316 6.95728 20.923 6.95728C25.6765 6.95728 27.7243 7.55951 29.0272 7.84959C29.4367 7.93992 29.8154 7.64658 29.8154 7.38511L31.3855 2.60136C31.3855 2.47915 31.3279 2.33186 31.134 2.23173C30.605 1.96023 27.3766 0.6604 19.2208 0.6604C9.82516 0.6604 0.1875 3.53658 0.1875 17.3629C0.1875 31.1897 11.2219 33.2501 20.5202 33.2501C28.2192 33.2501 32.8896 30.8828 32.8896 30.8828C33.0821 30.8063 33.1031 30.6128 33.1031 30.524V15.0824C33.1031 14.8212 32.8087 14.6089 32.4457 14.6089ZM104.939 2.39108C104.939 2.1276 104.649 1.91506 104.286 1.91506H96.3615C95.9995 1.91506 95.7051 2.1276 95.7051 2.39108C95.7051 2.39233 95.7072 13.4102 95.7072 13.4102H83.3549V2.39108C83.3549 2.1276 83.0634 1.91506 82.701 1.91506H74.7767C74.4161 1.91506 74.1221 2.1276 74.1221 2.39108V32.2276C74.1221 32.4908 74.4161 32.7051 74.7767 32.7051H82.701C83.0634 32.7051 83.3549 32.4908 83.3549 32.2276V19.4655H95.7072C95.7072 19.4655 95.6856 32.2266 95.6856 32.2276C95.6856 32.4908 95.9796 32.7051 96.3419 32.7051H104.285C104.648 32.7051 104.939 32.4908 104.939 32.2276V2.39108ZM47.3742 6.38013C47.3742 4.32701 45.0864 2.66785 42.264 2.66785C39.4444 2.66785 37.1548 4.32701 37.1548 6.38013C37.1548 8.431 39.4444 10.0947 42.264 10.0947C45.0864 10.0947 47.3742 8.431 47.3742 6.38013ZM46.7454 25.9493V12.1767C46.7454 11.9152 46.4521 11.7014 46.0898 11.7014H38.1903C37.8279 11.7014 37.5036 11.9704 37.5036 12.2319V31.9639C37.5036 32.5438 38.0058 32.7162 38.6558 32.7162H45.7731C46.5539 32.7162 46.7454 32.4404 46.7454 31.9546V25.9493ZM135.227 11.7014H127.363C127.002 11.7014 126.709 11.9152 126.709 12.1784V26.8082C126.709 26.8082 124.711 27.8599 121.875 27.8599C119.04 27.8599 118.287 26.9342 118.287 24.9365V12.1784C118.287 11.9152 117.994 11.7014 117.633 11.7014H109.652C109.292 11.7014 108.997 11.9152 108.997 12.1784V25.9026C108.997 31.8361 113.593 33.2878 119.916 33.2878C125.103 33.2878 129.285 31.2259 129.285 31.2259C129.285 31.2259 129.484 32.3124 129.574 32.4414C129.665 32.5699 129.899 32.6996 130.153 32.6996L135.23 32.6835C135.59 32.6835 135.885 32.4692 135.885 32.2073L135.883 12.1784C135.883 11.9152 135.589 11.7014 135.227 11.7014ZM153.345 27.8712C150.618 27.8114 148.768 26.9209 148.768 26.9209V17.4723C148.768 17.4723 150.593 16.6673 152.832 16.5233C155.664 16.3409 158.393 16.9564 158.393 21.8169C158.393 26.9425 157.161 27.954 153.345 27.8712ZM156.447 11.0605C151.981 11.0605 148.943 12.4943 148.943 12.4943V2.39108C148.943 2.1276 148.65 1.91506 148.289 1.91506H140.342C139.98 1.91506 139.687 2.1276 139.687 2.39108V32.2276C139.687 32.4908 139.98 32.7051 140.343 32.7051H145.857C146.105 32.7051 146.293 32.613 146.432 32.4517C146.569 32.2913 146.766 31.0761 146.766 31.0761C146.766 31.0761 150.016 33.2918 156.168 33.2918C163.39 33.2918 167.531 30.656 167.531 21.4591C167.531 12.2622 160.917 11.0605 156.447 11.0605ZM69.5532 11.6502H63.6088C63.6088 11.6502 63.5997 6.00098 63.5997 5.99972C63.5997 5.78593 63.4466 5.67903 63.1031 5.67903H55.0024C54.6875 5.67903 54.5183 5.77865 54.5183 5.99646V11.8356C54.5183 11.8356 50.4589 12.5408 50.1844 12.5977C49.911 12.6547 49.7098 12.8361 49.7098 13.0524V16.7218C49.7098 16.9858 50.0027 17.1985 50.3651 17.1985H54.5183V26.0258C54.5183 32.5824 60.9102 33.2265 65.2235 33.2265C67.1943 33.2265 69.5518 32.7711 69.941 32.6677C70.1764 32.6055 70.3131 32.4301 70.3131 32.2399L70.3197 28.2034C70.3197 27.9402 70.0108 27.7271 69.6627 27.7271C69.3164 27.7271 68.4302 27.8285 67.5179 27.8285C64.5982 27.8285 63.6088 26.8516 63.6088 25.5872C63.6088 24.3237 63.6084 17.1985 63.6084 17.1985H69.5532C69.9155 17.1985 70.2088 16.9858 70.2088 16.7218V12.1257C70.2088 11.8625 69.9155 11.6502 69.5532 11.6502Z" fill="white" fill-opacity="0.6"/>
</g>
<defs>
<clipPath id="clip0_10563_66">
<rect width="167.344" height="32.6887" fill="white" transform="translate(0.1875 0.6604)"/>
</clipPath>
</defs>
</svg>
